# xmcd
#
# Track frame offsets: 
#        150
#        16205
#        33873
#        54450
#        73060
#        98185
#        115635
#        135988
#        148848
#        167828
#        188748
#        203428
#        216830
#        231715
#        264680
#        286433
#        303503
#        323795
#
# Disc length: 4580 seconds
#
# Revision: 2
# Processed by: cddbd v1.5.2PL0 Copyright (c) Steve Scherf et al.
# Submitted via: ExactAudioCopy v1.0b4
#
DISCID=0911e212
DTITLE=Elvin Bishop - Sure Feels Good
DYEAR=1992
DGENRE=Blues Rock, Modern Electric Blues
TTITLE0=Ground Hog
TTITLE1=Let it Flow
TTITLE2=Fishin'
TTITLE3=Stealin' Watermelons
TTITLE4=Juke Joint Jump
TTITLE5=Crawling Kingsnake
TTITLE6=Calling All Cows
TTITLE7=Sure Feels Good
TTITLE8=Struttin' My Stuff
TTITLE9=Fooled Around And Fell In Love
TTITLE10=Holler and Shout
TTITLE11=Sugar Dumplin'
TTITLE12=Graveyard Blues
TTITLE13=Travelin' Shoes (Live Version)
TTITLE14=Rock my Soul (Live Version)
TTITLE15=Oh Babe
TTITLE16=Southern Dreams
TTITLE17=It's A Feelin'
EXTD=
EXTT0=
EXTT1=
EXTT2=
EXTT3=
EXTT4=
EXTT5=
EXTT6=
EXTT7=
EXTT8=
EXTT9=
EXTT10=
EXTT11=
EXTT12=
EXTT13=
EXTT14=
EXTT15=
EXTT16=
EXTT17=
PLAYORDER=
